<?xml version="1.0" encoding="iso-8859-1"?>
<!-- Generator: Adobe Illustrator 19.0.0, SVG Export Plug-In . SVG Version: 6.00 Build 0)  -->
<svg version="1.1" id="Layer_1" xmlns="http://www.w3.org/2000/svg" xmlns:xlink="http://www.w3.org/1999/xlink" x="0px" y="0px"
	 viewBox="0 0 502 502" style="enable-background:new 0 0 502 502;" xml:space="preserve">
<g>
	<g>
		<g>
			<path fill="#fff" d="M399.109,215.198c-13.081,0-25.596,2.459-37.116,6.93l-29.261-58.121v-59.888h19.77c3.603,0,7.113,1.022,10.153,2.957
				l4.251,2.705c1.664,1.059,3.522,1.565,5.358,1.565c3.306,0,6.54-1.638,8.446-4.633c2.965-4.66,1.592-10.84-3.068-13.805
				l-4.25-2.705c-6.254-3.98-13.478-6.083-20.891-6.083h-40.488c-1.272,0-2.521-0.226-3.713-0.673l-4.765-1.787
				c-5.171-1.941-10.936,0.682-12.874,5.852c-1.939,5.171,0.681,10.936,5.853,12.875l4.764,1.787
				c3.443,1.292,7.056,1.946,10.735,1.946h0.719v54.312H179.407l-14.873-29.542h37.44c5.522,0,10-4.477,10-10
				c0-5.523-4.478-10-10-10h-53.671c-3.471,0-6.693,1.8-8.514,4.754c-1.82,2.955-1.979,6.643-0.418,9.743l23.926,47.523
				l-24.792,50.646c-11.103-4.11-23.101-6.358-35.615-6.358C46.156,215.198,0,261.355,0,318.09
				c0,56.733,46.156,102.89,102.891,102.89c53.361,0,97.359-40.832,102.403-92.891h43.105c4.183,0,8.054-1.626,10.01-5.553
				l65.417-131.744l20.317,40.356c-28.781,18.261-47.925,50.405-47.925,86.941c0,56.734,46.156,102.891,102.891,102.891
				S502,374.823,502,318.09C502,261.355,455.844,215.198,399.109,215.198z M102.891,400.98C57.185,400.98,20,363.796,20,318.09
				c0-45.707,37.185-82.891,82.891-82.891c9.362,0,18.356,1.583,26.756,4.456l-35.738,73.006c-0.786,1.606-1.096,3.32-0.996,4.986
				c-0.006,0.148-0.022,0.293-0.022,0.443c0,5.523,4.478,10,10,10h82.266C180.2,369.094,145.21,400.98,102.891,400.98z
				 M118.414,308.09l29.231-59.715c20.261,13.052,34.485,34.676,37.512,59.715H118.414z M248.877,296.761l-22.49-44.671
				c-2.482-4.933-8.495-6.917-13.429-4.435c-4.933,2.483-6.918,8.496-4.435,13.429l23.665,47.005h-26.896
				c-3.189-32.913-21.947-61.336-48.8-77.792l25.391-51.865h125.75L248.877,296.761z M399.109,400.98
				c-45.706,0-82.891-37.185-82.891-82.891c0-28.734,14.702-54.092,36.973-68.969l36.986,73.465
				c2.482,4.934,8.496,6.919,13.429,4.436c4.933-2.484,6.918-8.496,4.435-13.429l-37-73.493c8.771-3.166,18.22-4.901,28.068-4.901
				c45.706,0,82.891,37.185,82.891,82.891C482,363.796,444.815,400.98,399.109,400.98z"/>
			<path fill="#fff" d="M193.242,230.727c1.757,3.491,5.281,5.505,8.939,5.505c1.512,0,3.047-0.344,4.489-1.07
				c4.933-2.484,6.918-8.496,4.435-13.429l-9.488-18.847c-2.482-4.933-8.496-6.919-13.429-4.436
				c-4.933,2.484-6.918,8.496-4.435,13.429L193.242,230.727z"/>
		</g>
	</g>
</g>
<g>
</g>
<g>
</g>
<g>
</g>
<g>
</g>
<g>
</g>
<g>
</g>
<g>
</g>
<g>
</g>
<g>
</g>
<g>
</g>
<g>
</g>
<g>
</g>
<g>
</g>
<g>
</g>
<g>
</g>
</svg>
